<svg width="90" height="24" viewBox="0 0 90 24" fill="none" xmlns="http://www.w3.org/2000/svg">
<path d="M43.8047 5.43848C48.3818 5.43848 49.9277 9.53374 50.0947 11.834C50.1589 12.7061 50.0816 13.2249 50.0303 13.5186C49.9946 13.7232 49.8184 13.8719 49.6104 13.8721H40.5078C40.2369 13.8721 40.0404 14.1218 40.0889 14.3896C40.3855 16.0553 41.8029 17.4619 44.0645 17.4619C45.8797 17.4619 47.4657 16.7897 48.2842 16.3672C48.4922 16.2601 48.7491 16.3429 48.8574 16.5518L49.459 17.6982C49.5572 17.8886 49.5128 18.1415 49.3262 18.2461C47.327 19.3618 45.6843 19.7501 43.8105 19.7529C39.6196 19.7601 36.8955 16.8658 36.8955 12.582C36.8955 9.31516 39.3329 5.43853 43.8047 5.43848ZM84.3301 5.43652C87.3831 5.43652 89.9999 7.72817 90 11.1611V18.9023C90 19.2188 89.7448 19.4756 89.4297 19.4756H87.5615C87.4061 19.4756 87.2733 19.3435 87.249 19.1846C87.2019 18.8752 86.8713 18.7192 86.5918 18.8867C85.6992 19.4238 84.5927 19.7872 82.5879 19.75C79.853 19.6984 77.8507 17.9846 77.7207 16.0098C77.5909 14.0276 78.6778 12.9033 80.168 12.1514C81.651 11.4023 83.1538 10.9738 86.5303 10.5742C86.8882 10.5327 87.1142 10.1713 87.0059 9.82617C86.6722 8.77218 85.7792 7.72965 83.7461 7.72949C82.0634 7.72949 80.6068 8.54006 79.707 9.05566C79.4147 9.22463 79.0412 9.10134 78.9043 8.79199L78.4648 7.80566C78.348 7.5436 78.4422 7.23535 78.6846 7.08496C79.7512 6.42329 81.6008 5.4395 84.3301 5.43945V5.43652ZM74.4209 0C74.736 1.92745e-05 74.9912 0.256733 74.9912 0.573242V18.9043C74.991 19.2206 74.7359 19.4765 74.4209 19.4766H72.5742C72.4061 19.4766 72.2647 19.3539 72.2402 19.1865C72.196 18.8786 71.8542 18.7181 71.5918 18.8828C70.9971 19.2566 69.9372 19.752 68.5127 19.752C65.0291 19.7518 62.0352 16.8512 62.0352 12.5947C62.0353 8.33841 65.4655 5.43865 68.7451 5.43848C69.8417 5.43848 70.5953 5.66714 71.1729 5.99512C71.5649 6.21825 72.046 5.90506 72.0205 5.4541C72.0063 5.21074 71.9981 4.95142 71.998 4.68945V0.573242C71.998 0.256767 72.2533 7.4927e-05 72.5684 0H74.4209ZM60.5264 5.52539C60.7914 5.47555 61.0361 5.67769 61.0361 5.94824V7.93262C61.0361 8.14172 60.885 8.31725 60.6797 8.35449C59.0968 8.63678 56.1934 10.0959 56.1934 13.7578V19.0527C56.1934 19.2905 56.0023 19.4824 55.7656 19.4824H53.3887C53.152 19.4823 52.9609 19.2904 52.9609 19.0527V6.16992C52.961 5.93226 53.1521 5.74034 53.3887 5.74023H55.2715C55.4951 5.74039 55.6815 5.91502 55.6973 6.13965L55.7764 7.59961C55.7966 7.98601 56.2778 8.15061 56.5273 7.85449C57.6482 6.51966 59.1902 5.78078 60.5264 5.52441V5.52539ZM23.4805 5.73242C23.7071 5.73252 23.9141 5.86812 24.0039 6.07715L27.7812 14.8037C28.0808 15.4923 29.0535 15.4923 29.3516 14.8037L33.126 6.07715C33.2173 5.86812 33.4227 5.73242 33.6494 5.73242H35.5332C35.9465 5.73276 36.2233 6.16065 36.0537 6.54004L30.4277 19.1436C30.3364 19.3482 30.1324 19.4814 29.9072 19.4814H27.2236C26.9985 19.4814 26.7959 19.3496 26.7031 19.1436L21.0723 6.54004C20.9026 6.1605 21.1792 5.73242 21.5928 5.73242H23.4805ZM68.7451 7.72852C67.0269 7.73587 65.0293 9.44324 65.0293 12.5811C65.0295 15.7188 66.8161 17.4211 68.667 17.4727C69.926 17.5085 70.8401 16.8318 71.459 16.1631C71.8097 15.7865 71.998 15.3851 71.998 14.9111V10.0068C71.998 9.51581 71.7929 9.04345 71.4238 8.72266C70.852 8.22567 69.9943 7.72422 68.7451 7.72852ZM86.3652 12.5205C84.6327 12.7325 82.6551 13.2213 81.8066 13.7168C80.8514 14.2738 80.5753 14.985 80.5752 15.6309C80.5752 16.6577 81.4254 17.4725 83.1035 17.4727C84.6721 17.4727 85.5741 16.9857 86.4297 16.2295C86.7973 15.9058 87.0059 15.4344 87.0059 14.9434H87.0068V13.0889C87.0067 12.7438 86.706 12.479 86.3652 12.5205ZM43.7422 7.72949C41.5362 7.72949 40.2099 9.75508 39.9219 11.0928C39.865 11.3577 40.0733 11.6055 40.3428 11.6055H46.9834C47.2471 11.6054 47.4528 11.369 47.4072 11.1084C47.1805 9.80224 46.1021 7.72959 43.7422 7.72949Z" fill="#F6F9FD"/>
<path d="M15.9766 5.43207C16.4784 5.43207 16.8865 5.84471 16.8867 6.35297C16.8867 6.86141 16.4785 7.27386 15.9766 7.27386C15.6288 7.27411 15.3457 7.56134 15.3457 7.91351C15.3459 8.26549 15.629 8.55291 15.9766 8.55316C16.4785 8.55316 16.8866 8.96568 16.8867 9.47406C16.8867 9.9825 16.4785 10.395 15.9766 10.395C15.6289 10.3952 15.3458 10.6816 15.3457 11.0336C15.3457 11.3858 15.6288 11.6721 15.9766 11.6723C16.4785 11.6723 16.8867 12.0867 16.8867 12.5952C16.8866 13.1035 16.4785 13.5161 15.9766 13.5161C15.6288 13.5163 15.3457 13.8025 15.3457 14.1547C15.3457 14.5069 15.6288 14.7931 15.9766 14.7934C16.4785 14.7934 16.8867 15.2059 16.8867 15.7143C16.8867 16.2227 16.4785 16.6371 15.9766 16.6371C15.6288 16.6374 15.3457 16.9236 15.3457 17.2758C15.3459 17.6279 15.6289 17.9142 15.9766 17.9145C16.4785 17.9145 16.8867 18.3269 16.8867 18.8354C16.8866 19.3437 16.4785 19.7563 15.9766 19.7563C15.4749 19.756 15.0675 19.3422 15.0674 18.8354C15.0674 18.4831 14.7835 18.1967 14.4355 18.1967C13.9337 18.1967 13.5256 17.7827 13.5254 17.2758C13.5254 16.9235 13.2419 16.6371 12.8926 16.6371C12.3906 16.6371 11.9824 16.2227 11.9824 15.7143C11.9824 15.3622 11.6993 15.0759 11.3516 15.0756C10.8496 15.0756 10.4414 14.6617 10.4414 14.1547C10.4414 13.8024 10.1575 13.5161 9.80957 13.5161C9.30768 13.516 8.89852 13.1035 8.89844 12.5952C8.89844 12.0867 9.30763 11.6723 9.80957 11.6723C10.1575 11.6723 10.4414 11.386 10.4414 11.0336C10.4415 10.5253 10.8497 10.1127 11.3516 10.1127C11.6993 10.1125 11.9824 9.82623 11.9824 9.47406C11.9825 8.96569 12.3907 8.55317 12.8926 8.55316C13.2418 8.55316 13.5252 8.26707 13.5254 7.91351C13.5254 7.40507 13.9336 6.99261 14.4355 6.99261C14.7835 6.9926 15.0674 6.70528 15.0674 6.35297C15.0676 5.84487 15.475 5.43231 15.9766 5.43207ZM0 5.69769C0 5.47431 0.262313 5.35651 0.427734 5.50531L8.03516 12.3832C8.16064 12.4964 8.16064 12.6949 8.03516 12.808L0.427734 19.686C0.26374 19.8348 0 19.717 0 19.4936V17.9487C0 17.8556 0.0455162 17.7663 0.121094 17.7133L6.72363 13.3598C6.7777 13.3212 6.73352 13.2366 6.6709 13.2592L0.383789 15.5737C0.197103 15.6424 0.0002509 15.504 0 15.3051V14.0414C3.37077e-05 13.9025 0.101409 13.7821 0.238281 13.7592L6.68457 12.6791C6.78011 12.6634 6.78011 12.5259 6.68457 12.5102L0.238281 11.4301C0.101531 11.4072 0.000213947 11.289 0 11.1489V9.88519C3.2793e-06 9.68612 0.196986 9.54692 0.383789 9.61566L6.66895 11.933C6.73169 11.956 6.77587 11.8721 6.72168 11.8334L0.121094 7.47797C0.0455162 7.42354 0 7.33571 0 7.24261V5.69769ZM14.4473 14.9125C14.0066 14.9125 13.6484 15.2708 13.6484 15.7133C13.6486 16.1557 14.0068 16.5161 14.4473 16.5161C14.8876 16.5159 15.2449 16.1542 15.2451 15.7133C15.2451 15.2723 14.8877 14.9127 14.4473 14.9125ZM12.8926 13.353C12.4534 13.353 12.0957 13.7122 12.0957 14.1547C12.0957 14.5973 12.4534 14.9565 12.8926 14.9565C13.3346 14.9565 13.6924 14.5973 13.6924 14.1547C13.6924 13.7122 13.3318 13.353 12.8926 13.353ZM11.3398 11.7934C10.8993 11.7934 10.5412 12.1551 10.541 12.5961C10.541 13.0373 10.8992 13.3969 11.3398 13.3969C11.7804 13.3968 12.1387 13.0401 12.1387 12.5961C12.1385 12.1523 11.7803 11.7935 11.3398 11.7934ZM14.4473 11.7934C14.0067 11.7934 13.6486 12.1551 13.6484 12.5961C13.6484 13.0373 14.0066 13.3969 14.4473 13.3969C14.8877 13.3967 15.2451 13.04 15.2451 12.5961C15.245 12.1524 14.8876 11.7936 14.4473 11.7934ZM12.8926 10.2328C12.4534 10.2329 12.0957 10.593 12.0957 11.0356C12.0958 11.478 12.4506 11.8373 12.8926 11.8373C13.3345 11.8373 13.6922 11.478 13.6924 11.0356C13.6924 10.593 13.3332 10.2328 12.8926 10.2328ZM14.4473 8.67523C14.0067 8.67523 13.6485 9.03446 13.6484 9.47699C13.6484 9.91955 14.0066 10.2787 14.4473 10.2787C14.8877 10.2786 15.2451 9.91943 15.2451 9.47699C15.2451 9.03458 14.8877 8.67542 14.4473 8.67523Z" fill="url(#paint0_linear_6943_7011)"/>
<defs>
<linearGradient id="paint0_linear_6943_7011" x1="-5.26032" y1="12.4296" x2="20.8358" y2="12.4296" gradientUnits="userSpaceOnUse">
<stop stop-color="#335CA0"/>
<stop offset="1" stop-color="#3480FC"/>
</linearGradient>
</defs>
</svg>
