<svg viewBox="0 0 75 17" fill="currentColor" xmlns="http://www.w3.org/2000/svg">
<path d="M36.3174 4.48926C40.1122 4.48926 41.3947 7.86979 41.5332 9.76855C41.5864 10.4884 41.5221 10.9168 41.4795 11.1592C41.4499 11.3282 41.3034 11.4511 41.1309 11.4512H33.584C33.3596 11.4515 33.1972 11.657 33.2373 11.8779C33.4832 13.2529 34.6582 14.4141 36.5332 14.4141C38.0381 14.414 39.3527 13.8595 40.0312 13.5107C40.2038 13.4221 40.417 13.4905 40.5068 13.6631L41.0059 14.6094C41.0871 14.7665 41.0501 14.9752 40.8955 15.0615C39.238 15.9825 37.8757 16.3033 36.3223 16.3057C32.8478 16.3114 30.5898 13.9218 30.5898 10.3857C30.59 7.68921 32.6103 4.48951 36.3174 4.48926ZM61.7012 0C61.9622 0.000220296 62.1737 0.211627 62.1738 0.472656V15.6045C62.1738 15.8656 61.9623 16.0769 61.7012 16.0771H60.1699C60.0306 16.0771 59.9139 15.976 59.8936 15.8379C59.8569 15.5838 59.573 15.4511 59.3555 15.5869C58.8625 15.8955 57.9838 16.3047 56.8027 16.3047C53.9145 16.3047 51.4316 13.9101 51.4316 10.3965C51.4318 6.88308 54.2761 4.48942 56.9951 4.48926C57.9043 4.48926 58.529 4.67848 59.0078 4.94922C59.3329 5.13332 59.7322 4.87425 59.7109 4.50195C59.6991 4.30111 59.6924 4.08729 59.6924 3.87109V0.472656C59.6925 0.211491 59.9038 0 60.165 0H61.7012ZM69.916 4.48828C72.4471 4.48828 74.617 6.37925 74.6172 9.21289V15.6035C74.6171 15.8647 74.4048 16.0762 74.1436 16.0762H72.5947C72.4661 16.0759 72.356 15.967 72.3359 15.8359C72.2967 15.5808 72.0226 15.4526 71.791 15.5908C71.051 16.034 70.1335 16.3344 68.4717 16.3037C66.2041 16.2612 64.5441 14.8452 64.4365 13.2148C64.3291 11.579 65.2296 10.6509 66.4648 10.0303C67.6944 9.41197 68.9408 9.05836 71.7402 8.72852C72.037 8.69423 72.2236 8.39625 72.1338 8.11133C71.8571 7.24128 71.1173 6.38092 69.4316 6.38086C68.0366 6.38086 66.829 7.04998 66.083 7.47559C65.8407 7.61479 65.5314 7.51301 65.418 7.25781L65.0537 6.44336C64.9568 6.22709 65.0345 5.97282 65.2354 5.84863C66.1197 5.30245 67.6533 4.49028 69.916 4.49023V4.48828ZM50.1807 4.56152C50.4006 4.52014 50.6045 4.68671 50.6045 4.91016V6.54883C50.6043 6.72128 50.4787 6.86577 50.3086 6.89648C48.9963 7.1294 46.589 8.33364 46.5889 11.3564V15.7275C46.5888 15.9238 46.4306 16.082 46.2344 16.082H44.2637C44.0675 16.082 43.9092 15.9237 43.9092 15.7275V5.09277C43.9094 4.8967 44.0676 4.7383 44.2637 4.73828H45.8242C46.0098 4.73828 46.1647 4.88275 46.1777 5.06836L46.2432 6.27344C46.2601 6.59233 46.6594 6.72801 46.8662 6.4834C47.7954 5.38172 49.073 4.7712 50.1807 4.55957V4.56152ZM19.4668 4.73145C19.6547 4.73145 19.8259 4.84404 19.9004 5.0166L23.0322 12.2197C23.2805 12.7883 24.0868 12.7882 24.334 12.2197L27.4639 5.0166C27.5395 4.8441 27.7096 4.73159 27.8975 4.73145H29.459C29.8018 4.73145 30.0313 5.08514 29.8906 5.39844L25.2266 15.8018C25.1509 15.9708 24.9817 16.0811 24.7949 16.0811H22.5703C22.3836 16.0809 22.2155 15.9719 22.1387 15.8018L17.4697 5.39844C17.3292 5.08532 17.5588 4.7318 17.9014 4.73145H19.4668ZM56.9951 6.37988C55.5706 6.38598 53.9141 7.79471 53.9141 10.3848C53.9141 12.9751 55.3961 14.3813 56.9307 14.4238C57.9744 14.4533 58.7321 13.8938 59.2451 13.3418C59.5359 13.0309 59.6923 12.6998 59.6924 12.3086V8.26074C59.6924 7.85533 59.5219 7.46502 59.2158 7.2002C58.7417 6.78995 58.0308 6.37634 56.9951 6.37988ZM71.6035 10.335C70.1671 10.5099 68.5267 10.9132 67.8232 11.3223C67.0313 11.7821 66.8037 12.3702 66.8037 12.9033C66.8038 13.7509 67.5081 14.4238 68.8994 14.4238C70.1998 14.4238 70.947 14.0216 71.6562 13.3975C71.9612 13.1303 72.1337 12.7413 72.1338 12.3359H72.1357V10.8047C72.1357 10.5199 71.886 10.3008 71.6035 10.335ZM36.2656 6.38086C34.437 6.38096 33.3376 8.05206 33.0986 9.15625C33.0513 9.37495 33.2238 9.58005 33.4473 9.58008H38.9531C39.1717 9.58004 39.3414 9.38496 39.3037 9.16992C39.1157 8.09171 38.2223 6.38086 36.2656 6.38086Z" fill="#051531"/>
<path d="M13.2461 4.48438C13.6621 4.48446 13.9998 4.82465 14 5.24414C14 5.66379 13.6622 6.0048 13.2461 6.00488C12.9576 6.00488 12.7227 6.24139 12.7227 6.53223C12.7228 6.82294 12.9577 7.06055 13.2461 7.06055C13.6621 7.06063 13.9998 7.4008 14 7.82031C14 8.23996 13.6622 8.58097 13.2461 8.58105C12.9576 8.58105 12.7227 8.81756 12.7227 9.1084C12.7228 9.39909 12.9577 9.63574 13.2461 9.63574C13.6621 9.63582 13.9999 9.97695 14 10.3965C14 10.8161 13.6622 11.1571 13.2461 11.1572C12.9576 11.1572 12.7227 11.3937 12.7227 11.6846C12.7229 11.9752 12.9577 12.2119 13.2461 12.2119C13.6622 12.212 14 12.552 14 12.9717C14 13.3913 13.6622 13.7333 13.2461 13.7334C12.9576 13.7334 12.7227 13.9699 12.7227 14.2607C12.7229 14.5514 12.9578 14.7881 13.2461 14.7881C13.6622 14.7882 14 15.1282 14 15.5479C14 15.9675 13.6622 16.3075 13.2461 16.3076C12.83 16.3076 12.4912 15.9663 12.4912 15.5479C12.4912 15.257 12.2562 15.0205 11.9678 15.0205C11.5518 15.0204 11.2141 14.679 11.2139 14.2607C11.2139 13.9699 10.9781 13.7334 10.6885 13.7334C10.2724 13.7333 9.93457 13.3913 9.93457 12.9717C9.93457 12.681 9.69941 12.4446 9.41113 12.4443C8.9951 12.4443 8.65644 12.1029 8.65625 11.6846C8.65625 11.3938 8.42123 11.1573 8.13281 11.1572C7.71666 11.1572 7.37695 10.8162 7.37695 10.3965C7.37709 9.9769 7.71674 9.63574 8.13281 9.63574C8.42113 9.63569 8.65608 9.39905 8.65625 9.1084C8.65625 8.6887 8.99498 8.34766 9.41113 8.34766C9.69941 8.34743 9.93457 8.11101 9.93457 7.82031C9.93473 7.40084 10.2725 7.06069 10.6885 7.06055C10.978 7.06055 11.2137 6.82412 11.2139 6.53223C11.2139 6.11258 11.5517 5.77157 11.9678 5.77148C12.2562 5.77148 12.4912 5.53497 12.4912 5.24414C12.4914 4.8246 12.8301 4.48438 13.2461 4.48438ZM0 4.70312C0 4.51869 0.217351 4.42197 0.354492 4.54492L6.66211 10.2217C6.76611 10.3151 6.76613 10.4799 6.66211 10.5732L0.354492 16.25C0.218573 16.3728 0.000146076 16.2761 0 16.0918V14.8164C0 14.7396 0.0379266 14.6658 0.100586 14.6221L5.57422 11.0283C5.61914 10.9964 5.58229 10.9264 5.53027 10.9453L0.318359 12.8555C0.163567 12.9122 0.000173039 12.798 0 12.6338V11.5908C0 11.4762 0.0838159 11.3764 0.197266 11.3574L5.54199 10.4668C5.6212 10.4538 5.6212 10.3402 5.54199 10.3271L0.197266 9.43555C0.0838528 9.41656 0 9.31795 0 9.20215V8.16016C0 7.99582 0.163484 7.88075 0.318359 7.9375L5.5293 9.85059C5.58132 9.8695 5.61817 9.7995 5.57324 9.76758L0.100586 6.17285C0.0379266 6.12793 0 6.05536 0 5.97852V4.70312ZM11.9775 12.3096C11.6122 12.3096 11.3154 12.6054 11.3154 12.9707C11.3155 13.3359 11.6123 13.6338 11.9775 13.6338C12.3427 13.6337 12.6395 13.3347 12.6396 12.9707C12.6396 12.6066 12.3428 12.3097 11.9775 12.3096ZM10.6885 11.0225C10.3245 11.0226 10.0283 11.3193 10.0283 11.6846C10.0285 12.0496 10.3246 12.3465 10.6885 12.3467C11.0549 12.3467 11.3514 12.0497 11.3516 11.6846C11.3516 11.3193 11.0526 11.0225 10.6885 11.0225ZM9.40137 9.73438C9.03621 9.73438 8.73951 10.0335 8.73926 10.3975C8.73926 10.7616 9.03605 11.0586 9.40137 11.0586C9.76664 11.0585 10.0635 10.7639 10.0635 10.3975C10.0632 10.0312 9.76648 9.73443 9.40137 9.73438ZM11.9775 9.73438C11.6124 9.73438 11.3157 10.0335 11.3154 10.3975C11.3154 10.7616 11.6122 11.0586 11.9775 11.0586C12.3428 11.0585 12.6396 10.7639 12.6396 10.3975C12.6394 10.0312 12.3426 9.73446 11.9775 9.73438ZM10.6885 8.44727C10.3245 8.44741 10.0283 8.74415 10.0283 9.10938C10.0284 9.47455 10.3221 9.77134 10.6885 9.77148C11.0549 9.77148 11.3515 9.47464 11.3516 9.10938C11.3516 8.74406 11.0538 8.44727 10.6885 8.44727ZM11.9775 7.16113C11.6122 7.16113 11.3154 7.45793 11.3154 7.82324C11.3156 8.18844 11.6123 8.48535 11.9775 8.48535C12.3427 8.48527 12.6395 8.18839 12.6396 7.82324C12.6396 7.45798 12.3428 7.16121 11.9775 7.16113Z" fill="url(#paint0_linear_6925_1750)"/>
<defs>
<linearGradient id="paint0_linear_6925_1750" x1="-4.36107" y1="10.2602" x2="17.2739" y2="10.2602" gradientUnits="userSpaceOnUse">
<stop stop-color="#051531"/>
<stop offset="1" stop-color="#195CC7"/>
</linearGradient>
</defs>
</svg>
